<svg id="Layer_1" data-name="Layer 1" xmlns="http://www.w3.org/2000/svg" viewBox="0 0 1000 463.5"><defs><style>.cls-1{fill:#262626;}</style></defs><title>arrow-right</title><path class="cls-1" d="M1037,534.46Q925.14,422.89,813.61,311c-3.77-3.77-5.5-3.61-9,.1-11.28,11.81-22.7,23.54-34.7,34.61-6.06,5.6-6.46,8.77-.22,14.93,45.75,45.14,91.08,90.72,136.47,136.24,2.67,2.68,6.42,4.65,7.62,9.93H45.48A5.49,5.49,0,0,0,40,512.31V567a5.49,5.49,0,0,0,5.48,5.49H861.2l41.54,0c3.63,0,7.66-1.21,11.29,1.56-48.47,48.48-96.39,96.59-144.63,144.39-5.35,5.3-5.67,8.17-.08,13.45,13.46,12.71,26.22,26.15,39.84,39.87,76.63-76.66,152.33-152.46,228.21-228.08C1041.42,539.64,1040.4,537.86,1037,534.46Z" transform="translate(-40 -308.25)"/></svg>