<svg id="decoration-1" xmlns="http://www.w3.org/2000/svg" xmlns:xlink="http://www.w3.org/1999/xlink" viewBox="0 0 440.99 857.89"><defs><style>.cls-1{fill:none;}.cls-2{opacity:0.63;}.cls-3{clip-path:url(#clip-path);}.cls-4{fill:#93ecfc;}.cls-5{clip-path:url(#clip-path-2);}.cls-6{clip-path:url(#clip-path-3);}.cls-7{clip-path:url(#clip-path-5);}.cls-8{clip-path:url(#clip-path-7);}.cls-9{clip-path:url(#clip-path-9);}.cls-10{clip-path:url(#clip-path-11);}.cls-11{clip-path:url(#clip-path-13);}.cls-12{clip-path:url(#clip-path-15);}.cls-13{clip-path:url(#clip-path-17);}</style><clipPath id="clip-path" transform="translate(0.12 0.11)"><path class="cls-1" d="M437.61,385.33c-5-37-15.46-57.74-26.2-55.82l-403.82,72c2.92-.52,5.76,5.12,7.11,15.14,1.81,13.44.24,29.68-3.51,36.26-1.19,2.1-2.46,3-3.69,2.74l403.58,73.49c4.54.83,9.21-2.37,13.61-10.1,9.91-17.45,15.69-53.25,15.69-90.39a328.15,328.15,0,0,0-2.77-43.3"/></clipPath><clipPath id="clip-path-2" transform="translate(0.12 0.11)"><rect class="cls-1" width="440.77" height="857.65"/></clipPath><clipPath id="clip-path-3" transform="translate(0.12 0.11)"><path class="cls-1" d="M387.63,473.3c-6.66-49.54-.87-109.4,12.93-133.69L4.65,404.23c-3.74,6.59-5.31,22.83-3.51,36.26,1.23,9.17,3.72,14.66,6.36,15.14l403.58,73.49c-9.75-1.78-18.9-22-23.45-55.82"/></clipPath><clipPath id="clip-path-5" transform="translate(0.12 0.11)"><path class="cls-1" d="M7.59,401.5c-1,.17-2,1.06-2.94,2.74l395.91-64.63c3.51-6.17,7.19-9.45,10.85-10.1L7.59,401.5"/></clipPath><clipPath id="clip-path-7" transform="translate(0.12 0.11)"><path class="cls-1" d="M2.07,411.64a89.05,89.05,0,0,0-.92,28.86c.21,1.59.46,3.06.75,4.43L54.4,687.51q-6.72-32.31-11.84-70.1c-16.92-125.76-15.11-267,1.45-383,3.44-24,7.5-47,12.17-68.46ZM56.18,166l1-4.63c-.34,1.53-.68,3.07-1,4.63"/></clipPath><clipPath id="clip-path-9" transform="translate(0.12 0.11)"><path class="cls-1" d="M57.2,161.34,2.07,411.64a27.46,27.46,0,0,1,2.58-7.4L98,44.24C81.63,73,67.9,113.44,57.2,161.34"/></clipPath><clipPath id="clip-path-11" transform="translate(0.12 0.11)"><path class="cls-1" d="M1.89,444.93c.06.27.12.53.17.79Zm255-204.68C228.28,27.84,157.15-59.91,98,44.24l-93.33,360c3.74-6.59,8.24-1,10,12.4s.24,29.67-3.51,36.26c-3.21,5.65-7,2.36-9.12-7.18L54.41,687.51c33.39,160.4,94.84,217.73,147,125.91,42.5-74.82,67.28-228.29,67.28-387.54,0-62.45-3.81-125.8-11.86-185.63"/></clipPath><clipPath id="clip-path-13" transform="translate(0.12 0.11)"><path class="cls-1" d="M189.6,831.5l1-1.31Zm248-446.17c-3.15-23.47-8.54-40.41-14.8-49.16L193.39,29.46C220.23,67,243.31,139.63,256.84,240.25c28.56,212.4,3.75,469-55.42,573.17a165.27,165.27,0,0,1-10.83,16.77l231.34-307a39.22,39.22,0,0,0,2.76-4.22c9.91-17.45,15.69-53.25,15.69-90.39a328.15,328.15,0,0,0-2.77-43.3"/></clipPath><clipPath id="clip-path-15" transform="translate(0.12 0.11)"><path class="cls-1" d="M387.63,473.3c-6.66-49.54-.87-109.4,12.93-133.69L98,44.24c-23.36,41.11-41.36,106-52.84,182.51-17.6,117.34-19.87,262.1-2.58,390.66,26.68,198.43,90.51,288.07,147,214.09L421.93,523.24c-13.18,17.25-28.07-3.66-34.3-49.94"/></clipPath><clipPath id="clip-path-17" transform="translate(0.12 0.11)"><path class="cls-1" d="M193.39,29.46c-29.81-41.7-64.27-40-95.41,14.78L400.56,339.61c7-12.31,14.71-13.13,21.48-4.48L193.39,29.46M422,335.13l.78,1c-.26-.36-.52-.71-.78-1"/></clipPath></defs><title>geometry</title><g class="cls-2"><g class="cls-3"><g id="Path_543" data-name="Path 543"><path class="cls-4" d="M412.46,529.74a8.35,8.35,0,0,1-1.57-.15c-4.72-.91-9.2-6-13.09-14.36L11.45,453.44c-1.54,2.56-3,2.87-4.07,2.68-3-.58-5.5-6.39-6.73-15.56l-.08-.62,387.51,32.9.05.4c2.32,17.28,5.93,31.4,10.29,41.07l27.06,4.33-.36.63C421.21,526.16,416.86,529.74,412.46,529.74Zm-13.54-14.33c3.65,7.72,7.81,12.36,12.16,13.2s8.76-2.34,12.81-9.21Zm-388-63.06.34,0,386,61.73c-4.3-9.71-7.83-23.55-10.12-40.36L1.73,441.05c1.4,9.82,4,13.73,5.84,14.09,1.32.25,2.46-1.22,3.19-2.49Z" transform="translate(0.12 0.11)"/></g><g id="Path_544" data-name="Path 544"><path class="cls-4" d="M425,519.57l-.34-.06L10.4,453.27l.36-.62C14.45,446.15,16,430,14.2,416.7l-.07-.53.53,0L438.05,384.8l.06.46c6.67,49.55.84,109.66-13,134ZM12,452.51l412.45,66c13.57-24.3,19.28-83.54,12.76-132.61L15.26,417.09C16.92,430.09,15.46,445.59,12,452.51Z" transform="translate(0.12 0.11)"/></g><g id="Line_5" data-name="Line 5"><rect class="cls-4" x="224.41" y="252.32" width="1" height="423.48" transform="translate(-258.64 643.07) rotate(-84.44)"/></g><g id="Line_6" data-name="Line 6"><rect class="cls-4" x="227.36" y="221.12" width="1" height="424.91" transform="translate(-208.81 655.33) rotate(-89.18)"/></g><g id="Path_545" data-name="Path 545"><path class="cls-4" d="M14.27,417.16l-.07-.46c-.9-6.73-2.36-10.79-3.78-12.9L3.7,404.89l.51-.91c1.61-2.83,3.2-3.18,4.25-3a4.25,4.25,0,0,1,2.4,1.71l389.38-63.55c4.35-7.57,9.23-11.07,14.12-10.12,10.25,2,19.35,23.53,23.75,56.22l.07.53-.53,0Zm-2.78-13.54c1.57,2.56,2.85,6.87,3.64,12.48l421.92-31.23c-4.37-32-13.12-53-22.88-54.85-4.47-.87-9,2.54-13.18,9.84l-.12.21ZM8,402a3.16,3.16,0,0,0-2.3,1.6l4-.66A2.77,2.77,0,0,0,8.27,402Z" transform="translate(0.12 0.11)"/></g><g id="Line_7" data-name="Line 7"><rect class="cls-4" x="9.98" y="375.52" width="420.28" height="1" transform="translate(-51.22 35.32) rotate(-8.19)"/></g><g id="Line_8" data-name="Line 8"><rect class="cls-4" x="5.36" y="365.1" width="412.61" height="1" transform="translate(-60.23 42.49) rotate(-10.01)"/></g><path class="cls-4" d="M412.46,529.74a8.11,8.11,0,0,1-1.47-.13L7.42,456.13h0l.17-1,.29,0c1.19,0,2.21-1.35,2.88-2.52,3.69-6.5,5.24-22.63,3.45-35.95-1-7.37-2.88-12.72-5.05-14.3A1.93,1.93,0,0,0,7.69,402h0l-.17-1h0l403.81-72a9.31,9.31,0,0,1,7.25,2c8.62,6.29,15.74,26.08,19.54,54.29,6.66,49.56.84,109.68-13,134C421.21,526.16,416.86,529.74,412.46,529.74ZM9.68,455.52l401.49,73.11c4.44.81,9-2.6,13.08-9.86,13.74-24.17,19.51-84,12.87-133.37-3.76-27.95-10.74-47.49-19.14-53.62A8.32,8.32,0,0,0,411.5,330L9.78,401.61c2.4,1.78,4.38,7.23,5.42,15,1.82,13.51.21,29.91-3.57,36.57A7.6,7.6,0,0,1,9.68,455.52Z" transform="translate(0.12 0.11)"/></g><g class="cls-5"><g id="Path_548" data-name="Path 548"><path class="cls-4" d="M412.46,529.74a8.11,8.11,0,0,1-1.47-.13L7.42,456.13h0l.17-1,.29,0c1.19,0,2.21-1.35,2.88-2.52,3.69-6.5,5.24-22.63,3.45-35.95-1-7.37-2.88-12.72-5.05-14.3A1.93,1.93,0,0,0,7.69,402h0l-.17-1h0l403.81-72a9.31,9.31,0,0,1,7.25,2c8.62,6.29,15.74,26.08,19.54,54.29,6.66,49.56.84,109.68-13,134C421.21,526.16,416.86,529.74,412.46,529.74ZM9.68,455.52l401.49,73.11c4.44.81,9-2.6,13.08-9.86,13.74-24.17,19.51-84,12.87-133.37-3.76-27.95-10.74-47.49-19.14-53.62A8.32,8.32,0,0,0,411.5,330L9.78,401.61c2.4,1.78,4.38,7.23,5.42,15,1.82,13.51.21,29.91-3.57,36.57A7.6,7.6,0,0,1,9.68,455.52Z" transform="translate(0.12 0.11)"/></g></g><g class="cls-6"><g id="Path_549" data-name="Path 549"><path class="cls-4" d="M388.21,473.85l-.62-.05L.7,441l0-.4C-1.17,427.05.43,410.65,4.22,404l.11-.21.24,0L401.51,339l-.51.91c-13.74,24.17-19.51,84-12.87,133.37ZM1.59,440l385.47,32.72c-6.46-48.83-.84-107.69,12.56-132.48L5,404.69C1.4,411.25-.1,426.93,1.59,440Z" transform="translate(0.12 0.11)"/></g><g id="Line_9" data-name="Line 9"><rect class="cls-4" x="0.67" y="393.32" width="389.93" height="1" transform="translate(-38.85 22.01) rotate(-5.83)"/></g><g id="Line_10" data-name="Line 10"><rect class="cls-4" x="0.4" y="423.8" width="384.57" height="1" transform="translate(-4.84 2.39) rotate(-0.67)"/></g><g id="Path_550" data-name="Path 550"><path class="cls-4" d="M412.46,529.74a8.35,8.35,0,0,1-1.57-.15c-4.72-.91-9.2-6-13.09-14.36L11.45,453.44c-1.54,2.56-3.06,2.87-4.07,2.68-3-.58-5.5-6.4-6.73-15.56l-.08-.62,387.51,32.9.05.39c2.32,17.29,5.93,31.41,10.29,41.08l27.06,4.33-.36.63C421.21,526.16,416.86,529.74,412.46,529.74Zm-13.54-14.33c3.65,7.71,7.81,12.36,12.16,13.2s8.76-2.34,12.81-9.21Zm-388-63.06.34,0,386,61.73c-4.3-9.71-7.83-23.55-10.12-40.37L1.73,441c1.4,9.83,4,13.74,5.84,14.1,1.32.25,2.46-1.22,3.19-2.49Z" transform="translate(0.12 0.11)"/></g><g id="Line_11" data-name="Line 11"><rect class="cls-4" x="199.93" y="282.77" width="1" height="398.18" transform="translate(-306.46 605.66) rotate(-81.13)"/></g><g id="Line_12" data-name="Line 12"><rect class="cls-4" x="208.38" y="287.42" width="1" height="409.72" transform="translate(-312.74 609.73) rotate(-79.68)"/></g><g id="Path_551" data-name="Path 551"><path class="cls-4" d="M411,529.61,7.41,456.13c-3-.55-5.53-6.37-6.76-15.57C-1.17,427.05.43,410.65,4.21,404l.12-.21.24,0L401.51,339l-.52.91c-13.73,24.17-19.5,84-12.86,133.37,4.35,32.38,13.18,53.6,23,55.4ZM5,404.69c-3.61,6.63-5.1,22.55-3.33,35.74,1.39,10.31,4.07,14.37,6,14.71L407,527.87c-8.62-6-16-26-19.85-54.5-6.59-48.95-1-108.2,12.48-133.1Z" transform="translate(0.12 0.11)"/></g></g><g class="cls-5"><g id="Path_553" data-name="Path 553"><path class="cls-4" d="M411,529.61,7.41,456.13c-3-.55-5.53-6.37-6.76-15.57C-1.17,427.05.43,410.65,4.21,404l.12-.21.24,0L401.51,339l-.52.91c-13.73,24.17-19.5,84-12.86,133.37,4.35,32.38,13.18,53.6,23,55.4ZM5,404.69c-3.61,6.63-5.1,22.55-3.33,35.74,1.39,10.31,4.07,14.37,6,14.71L407,527.87c-8.62-6-16-26-19.85-54.5-6.59-48.95-1-108.2,12.48-133.1Z" transform="translate(0.12 0.11)"/></g></g><g class="cls-7"><g id="Path_554" data-name="Path 554"><path class="cls-4" d="M14.27,417.16l-.07-.46c-.9-6.73-2.36-10.8-3.78-12.91l-6.72,1.1.51-.91c1.61-2.83,3.2-3.18,4.25-3a4.25,4.25,0,0,1,2.4,1.71l389.38-63.55c4.35-7.57,9.23-11.07,14.12-10.12,10.25,2,19.35,23.53,23.75,56.22l.07.53-.53,0Zm-2.78-13.54c1.57,2.56,2.85,6.87,3.64,12.48l421.92-31.23c-4.37-32-13.12-53-22.88-54.85-4.47-.87-9,2.53-13.18,9.84l-.12.21ZM8,402a3.16,3.16,0,0,0-2.3,1.6l4-.66A2.87,2.87,0,0,0,8.27,402,1.51,1.51,0,0,0,8,402Z" transform="translate(0.12 0.11)"/></g><g id="Path_555" data-name="Path 555"><path class="cls-4" d="M3.7,404.89l.51-.91c1-1.77,2.12-2.78,3.29-3l403.82-72s0,0,0,0l.18,1c-3.62.64-7.15,4-10.51,9.85l-.11.21Zm403.59-74.14L7.68,402a3.53,3.53,0,0,0-2,1.57l394.57-64.4C402.5,335.24,404.85,332.43,407.29,330.75Z" transform="translate(0.12 0.11)"/></g></g><g class="cls-5"><path class="cls-4" d="M3.7,404.89l.52-.91c1-1.77,2.11-2.78,3.28-3l403.82-72s0,0,0,0l.18,1c-3.62.64-7.15,4-10.5,9.85l-.12.21Zm403.59-74.14L7.68,402a3.56,3.56,0,0,0-2,1.57l394.58-64.4C402.5,335.24,404.85,332.43,407.29,330.75Z" transform="translate(0.12 0.11)"/></g><g class="cls-8"><g id="Path_558" data-name="Path 558"><path class="cls-4" d="M42.07,617.52.66,440.61C-1.16,427.09.42,410.74,4.18,404l35-134.8C49.87,174.26,70,92.49,97.55,44l1.86-3.29L40.09,269.51c-12.27,108.68-12.26,234.66,3,347.83Zm-3.7-341.35L5.12,404.42l0,.06C1.39,411-.15,427.1,1.64,440.43L40.78,607.61C27.14,499.32,27.17,380.22,38.37,276.17ZM96.51,47.9C70.66,95.44,51.58,172.67,40.93,262.3Z" transform="translate(0.12 0.11)"/></g><g id="Line_13" data-name="Line 13"><rect class="cls-4" x="-87.21" y="302.25" width="227.07" height="1" transform="translate(-274.82 262.94) rotate(-77.48)"/></g><g id="Line_14" data-name="Line 14"><rect class="cls-4" x="-5.37" y="411.57" width="42.23" height="1" transform="translate(-278.79 123.69) rotate(-43.42)"/></g><g id="Path_559" data-name="Path 559"><path class="cls-4" d="M149,857.75a32.94,32.94,0,0,1-6.39-.62C99.33,848.75,60.81,756.92,42.06,617.47L3,450.77A46,46,0,0,1,.65,440.56l1-.18L4,450.51c1.2,3,2.51,4.42,3.57,4.63,1.31.25,2.46-1.21,3.19-2.49l.45-.8.43.81L202,813.43l-.14.24C185.37,842.67,167.22,857.75,149,857.75ZM4.89,454.29,43,617.29C61.75,756.34,100,847.85,142.77,856.15c19.86,3.85,39.94-10.93,58.08-42.74L11.16,453.9c-1.44,2.14-2.83,2.4-3.78,2.22A4.3,4.3,0,0,1,4.89,454.29Z" transform="translate(0.12 0.11)"/></g><path class="cls-4" d="M53.92,687.61,1.4,445c-.28-1.37-.54-2.87-.75-4.47a89.2,89.2,0,0,1,.93-29L55.65,166c.35-1.61.71-3.21,1.06-4.8l1,.22-1.06,4.8C52,187.49,48,210.42,44.51,234.5,27.18,355.8,26.65,495.34,43.05,617.34c3.37,25,7.35,48.6,11.84,70.07Zm-5.7-483.17L2.56,411.75a88.21,88.21,0,0,0-.92,28.68c.21,1.57.46,3.05.74,4.39L47.32,652.4c-1.89-11.26-3.65-22.93-5.26-34.92-16.42-122.1-15.89-261.74,1.46-383.12Q45.69,219.08,48.22,204.44Z" transform="translate(0.12 0.11)"/></g><g class="cls-5"><path class="cls-4" d="M53.92,687.61,1.4,445c-.28-1.37-.54-2.87-.75-4.47a89.2,89.2,0,0,1,.93-29L55.65,166c.35-1.61.71-3.21,1.06-4.8l1,.22-1.06,4.79C52,187.49,48,210.42,44.51,234.5,27.18,355.8,26.65,495.34,43.05,617.34c3.37,25,7.35,48.59,11.84,70.07Zm-5.7-483.17L2.56,411.75a88.21,88.21,0,0,0-.92,28.68c.21,1.57.46,3.05.74,4.39L47.32,652.41c-1.89-11.27-3.65-22.94-5.26-34.93-16.42-122.1-15.89-261.74,1.46-383.12Q45.69,219.08,48.22,204.44Z" transform="translate(0.12 0.11)"/></g><g class="cls-9"><g id="Path_563" data-name="Path 563"><path class="cls-4" d="M42.07,617.52.66,440.61C-1.16,427.09.42,410.74,4.18,404l35-134.8C49.87,174.26,70,92.49,97.55,44l1.86-3.29L40.09,269.51c-12.27,108.68-12.26,234.66,3,347.83Zm-3.7-341.35L5.12,404.42l0,.06C1.39,411-.15,427.1,1.64,440.43L40.78,607.61C27.14,499.32,27.17,380.22,38.37,276.17ZM96.51,47.9C70.66,95.44,51.58,172.67,40.93,262.3Z" transform="translate(0.12 0.11)"/></g><g id="Path_564" data-name="Path 564"><path class="cls-4" d="M2.56,411.75l-1-.2c.08-.43.18-.86.28-1.29l54.85-249C67.8,111.62,81.53,72.17,97.55,44l1.86-3.29L5.09,404.47a27,27,0,0,0-2.25,6Zm94-363.85c-15.15,27.84-28.2,66-38.82,113.55l-53,240.72Z" transform="translate(0.12 0.11)"/></g></g><g class="cls-5"><g id="Path_566" data-name="Path 566"><path class="cls-4" d="M2.56,411.75l-1-.2c.08-.43.18-.86.28-1.29l54.85-249C67.8,111.62,81.53,72.17,97.55,44l1.86-3.29L5.09,404.47a27,27,0,0,0-2.25,6Zm94-363.85c-15.15,27.84-28.2,66-38.82,113.55l-53,240.72Z" transform="translate(0.12 0.11)"/></g></g><g class="cls-10"><path class="cls-4" d="M149,857.75a32.94,32.94,0,0,1-6.39-.62C99.33,848.75,60.81,756.92,42.06,617.48L3,450.78A46.24,46.24,0,0,1,.65,440.56l1-.18L4,450.51c1.2,3,2.51,4.42,3.57,4.63,1.32.25,2.46-1.21,3.19-2.49l.45-.79.43.8L202,813.43l-.14.24C185.38,842.67,167.22,857.75,149,857.75ZM4.89,454.29,43,617.29C61.75,756.35,100,847.85,142.77,856.15c19.86,3.85,39.94-10.93,58.08-42.74L11.16,453.9c-1.44,2.14-2.83,2.41-3.78,2.22A4.33,4.33,0,0,1,4.89,454.29Z" transform="translate(0.12 0.11)"/><rect class="cls-4" x="43" y="446.48" width="1" height="343.96" transform="translate(-141.77 26.95) rotate(-13.38)"/><g id="Line_16" data-name="Line 16"><rect class="cls-4" x="73.3" y="444.85" width="1" height="421.99" transform="translate(-202.75 56.76) rotate(-18.36)"/></g><g id="Path_568" data-name="Path 568"><path class="cls-4" d="M201.4,814.46l-.43-.81L10.62,452.89l.14-.24C14.45,446.15,16,430,14.2,416.7l0-.29.24-.18L257.22,239.35l.11.83C285.87,452.33,261,709.6,201.85,813.67ZM11.76,452.9,201.43,812.38c58.63-104.29,83.28-360,55-571.24L15.23,416.86C17,430.15,15.42,446.14,11.76,452.9Z" transform="translate(0.12 0.11)"/></g><rect class="cls-4" x="130.8" y="393.21" width="1" height="322.87" transform="translate(-361.37 268.34) rotate(-46.52)"/><g id="Line_18" data-name="Line 18"><rect class="cls-4" x="141.37" y="318.02" width="1" height="254.61" transform="translate(-316.79 534.64) rotate(-83.33)"/></g><g id="Path_569" data-name="Path 569"><path class="cls-4" d="M14.32,417.53l-.12-.83c-1.38-10.28-4-14.35-5.93-14.71-1.32-.26-2.46,1.21-3.19,2.49l-1.86,3.29L97.55,44C116,11.6,136.45-3.43,156.81.52c43.26,8.38,81.77,100.22,100.52,239.66l0,.29-.24.18ZM8,401a2.54,2.54,0,0,1,.49.05c2.9.56,5.35,6,6.62,14.73L256.3,240C237.6,101.19,199.41,9.8,156.62,1.5c-19.89-3.85-40,11-58.17,42.93L5.76,402A3.21,3.21,0,0,1,8,401Z" transform="translate(0.12 0.11)"/></g><rect class="cls-4" x="-81.61" y="238.43" width="391.45" height="1" transform="translate(-149.15 211.85) rotate(-58.58)"/><g id="Line_20" data-name="Line 20"><rect class="cls-4" x="-129.87" y="201.05" width="427.38" height="1" transform="translate(-134.22 209.02) rotate(-69.35)"/></g><path class="cls-4" d="M149,857.76a33.23,33.23,0,0,1-5.16-.41C108,851.72,75.2,789.86,53.92,687.61L1.59,445.87c-.07-.27-.13-.55-.19-.84l1-.21.17.76c1.26,5.63,3.19,9.27,5.08,9.57,1.3.2,2.42-1.25,3.13-2.5C14.45,446.15,16,430,14.2,416.7c-1.38-10.28-4.06-14.35-5.93-14.71-1.33-.26-2.46,1.21-3.19,2.49l-1.86,3.29L97.54,44C115.94,11.6,136.44-3.43,156.81.52c43.25,8.38,81.77,100.22,100.52,239.66C285.87,452.33,261,709.6,201.85,813.67,185.39,842.64,167.21,857.75,149,857.76ZM4.22,453.31l50.67,234.1c10.46,50.22,24.19,92.14,39.71,121.24,15.22,28.53,32.29,45,49.36,47.71,19.51,3.06,39.23-11.87,57-43.19,59-103.9,83.87-360.89,55.36-572.86C237.65,101.31,199.44,9.8,156.62,1.5c-19.9-3.86-40,11-58.17,42.92L5.76,402a3,3,0,0,1,2.7-.94c3,.58,5.5,6.39,6.73,15.56,1.82,13.51.22,29.91-3.56,36.57-1.57,2.77-3.13,3.16-4.15,3C6.3,456,5.2,455,4.22,453.31Z" transform="translate(0.12 0.11)"/></g><g class="cls-5"><g id="Path_572" data-name="Path 572"><path class="cls-4" d="M149,857.76a33.23,33.23,0,0,1-5.16-.41C108,851.72,75.2,789.86,53.92,687.61L1.59,445.87c-.07-.27-.13-.55-.19-.84l1-.21.17.76c1.26,5.63,3.19,9.27,5.08,9.57,1.3.2,2.42-1.25,3.13-2.5C14.45,446.15,16,430,14.2,416.7c-1.38-10.28-4.06-14.35-5.93-14.71-1.33-.26-2.46,1.21-3.19,2.49l-1.86,3.29L97.54,44C115.94,11.6,136.44-3.43,156.81.52c43.25,8.38,81.77,100.22,100.52,239.66C285.87,452.33,261,709.6,201.85,813.67,185.39,842.64,167.21,857.75,149,857.76ZM4.22,453.31l50.67,234.1c10.46,50.22,24.19,92.14,39.71,121.24,15.22,28.53,32.29,45,49.36,47.71,19.51,3.06,39.23-11.87,57-43.19,59-103.9,83.87-360.89,55.36-572.86C237.65,101.31,199.44,9.8,156.62,1.5c-19.9-3.86-40,11-58.17,42.92L5.76,402a3,3,0,0,1,2.7-.94c3,.58,5.5,6.39,6.73,15.56,1.82,13.51.22,29.91-3.56,36.57-1.57,2.77-3.13,3.16-4.15,3C6.3,456,5.2,455,4.22,453.31Z" transform="translate(0.12 0.11)"/></g></g><g class="cls-11"><path class="cls-4" d="M149,857.75a33.73,33.73,0,0,1-6.39-.61C99.33,848.75,60.81,756.92,42.06,617.47l-.05-.38.35-.14L388,472.59l.09.64c4.34,32.26,13.13,53.48,22.95,55.38,2.59.5,5.23-.44,7.79-2.75l5.42-7.14.83.55a30,30,0,0,1-5.49,7.25L201.81,813.72C185.37,842.67,167.22,857.75,149,857.75ZM43.1,617.72C61.81,756.51,100,847.86,142.77,856.15c19.91,3.87,40-11,58.21-43L416.82,528.56a8.62,8.62,0,0,1-5.93,1c-10.19-2-19.24-23.25-23.67-55.58Z" transform="translate(0.12 0.11)"/><g id="Path_574" data-name="Path 574"><path class="cls-4" d="M201.81,813.72l-.83-.55c59-103.9,83.87-360.89,55.36-572.86l-.16-1.24,181.9,146,0,.19c6.67,49.55.84,109.66-13,134Zm55.69-572.3c27.74,208,4.27,458.91-52.41,566.33l219.2-289c13.68-24.09,19.46-83.8,12.85-133.13Z" transform="translate(0.12 0.11)"/></g><rect class="cls-4" x="211.78" y="574.65" width="260.52" height="1" transform="translate(-303.57 399.7) rotate(-44.05)"/><g id="Line_22" data-name="Line 22"><rect class="cls-4" x="267.52" y="447.86" width="173.57" height="1" transform="matrix(0.99, -0.13, 0.13, 0.99, -57.11, 51.98)"/></g><g id="Path_575" data-name="Path 575"><path class="cls-4" d="M438.28,386.5l-181.91-146,0-.2q-3.37-25.17-7.59-48.2L97.35,44.32l.19-.33C116,11.6,136.44-3.43,156.82.52c38,7.37,72.35,79.17,92.85,191.09L400.44,338.8c4.3-7.32,9.09-10.69,13.91-9.76,10.26,2,19.36,23.53,23.76,56.22ZM257.31,240,437,384.15c-4.4-31.55-13.09-52.25-22.79-54.13-4.46-.86-9,2.54-13.17,9.84l-.32.56L250,193.31Q254,215.63,257.31,240ZM98.6,44.15,248.43,190.41C228,79.7,194.08,8.76,156.63,1.5,136.79-2.35,116.73,12.4,98.6,44.15Z" transform="translate(0.12 0.11)"/></g><g id="Line_23" data-name="Line 23"><rect class="cls-4" x="321.61" y="35.68" width="1" height="346.58" transform="translate(-60.42 240.8) rotate(-37.71)"/></g><path class="cls-4" d="M190,831.8l-.8-.6h0l0,0,.07-.1A160.14,160.14,0,0,0,201,813.17c59-103.9,83.87-360.89,55.36-572.86-13-96.86-35.52-171.64-63.35-210.56l.8-.59L423.22,335.87c6.55,9.16,11.84,26.7,14.89,49.39,6.66,49.56.84,109.68-13,134a39.6,39.6,0,0,1-2.79,4.27L190.14,831.61ZM201.67,41.35C226,82.76,245.54,152.44,257.33,240.18,285.86,452.33,261,709.6,201.85,813.67c-.6,1.06-1.21,2.12-1.83,3.17l221.51-293.9a35.94,35.94,0,0,0,2.72-4.17c13.74-24.17,19.51-84,12.87-133.37-3-22.54-8.26-39.92-14.71-48.94Z" transform="translate(0.12 0.11)"/></g><g class="cls-5"><path class="cls-4" d="M190,831.8l-.8-.6h0l0,0,.07-.1A160.14,160.14,0,0,0,201,813.17c59-103.9,83.87-360.89,55.36-572.86-13-96.86-35.52-171.64-63.35-210.56l.8-.59L423.22,335.87c6.55,9.16,11.84,26.7,14.89,49.39,6.66,49.56.84,109.68-13,134a39.6,39.6,0,0,1-2.79,4.27L190.14,831.61ZM201.67,41.35C226,82.76,245.54,152.44,257.33,240.18,285.86,452.33,261,709.6,201.85,813.67c-.6,1.06-1.21,2.12-1.83,3.17l221.51-293.9a35.94,35.94,0,0,0,2.72-4.17c13.74-24.17,19.51-84,12.87-133.37-3-22.54-8.26-39.92-14.71-48.94Z" transform="translate(0.12 0.11)"/></g><g class="cls-12"><g id="Path_579" data-name="Path 579"><path class="cls-4" d="M42.15,618.12l-.09-.64C13.53,405.32,38.42,148.05,97.55,44l.32-.56.46.45L401.19,339.52l-.19.34c-13.74,24.17-19.51,84-12.87,133.37l.05.38-.35.15Zm56-573.07C39.36,149.21,14.65,405.24,43,616.7L387.09,473c-6.55-49.25-.81-108.8,12.85-133.29Z" transform="translate(0.12 0.11)"/></g><g id="Line_24" data-name="Line 24"><rect class="cls-4" x="219.78" y="90.74" width="1" height="384.5" transform="translate(-133.17 343.05) rotate(-61.73)"/></g><g id="Line_25" data-name="Line 25"><rect class="cls-4" x="207.52" y="232.43" width="1" height="354.72" transform="translate(-215.02 589.15) rotate(-86.04)"/></g><g id="Path_580" data-name="Path 580"><path class="cls-4" d="M149,857.75a33.73,33.73,0,0,1-6.39-.61C99.33,848.75,60.81,756.92,42.06,617.47l-.05-.38.35-.14L388,472.59l.09.64c4.34,32.26,13.13,53.48,22.95,55.38,2.59.5,5.23-.44,7.79-2.75l5.42-7.14.83.55a30,30,0,0,1-5.49,7.25L201.81,813.72C185.37,842.67,167.22,857.75,149,857.75ZM43.1,617.72C61.81,756.51,100,847.86,142.77,856.15c19.91,3.87,40-11,58.21-43L416.82,528.56a8.62,8.62,0,0,1-5.93,1c-10.19-2-19.24-23.25-23.67-55.58Z" transform="translate(0.12 0.11)"/></g><g id="Line_26" data-name="Line 26"><rect class="cls-4" x="32.16" y="648.67" width="416.1" height="1" transform="translate(-367.08 317.34) rotate(-41.04)"/></g><g id="Line_27" data-name="Line 27"><rect class="cls-4" x="63.23" y="692.03" width="424.25" height="1" transform="translate(-433.92 464.19) rotate(-50.47)"/></g><g id="Path_581" data-name="Path 581"><path class="cls-4" d="M149.16,857.78a35,35,0,0,1-8.95-1.19C119.7,851.15,99.87,826.74,82.85,786,65.37,744.18,51.26,685.9,42.06,617.47,25.47,494.12,26.44,348,44.64,226.67,56.59,147.05,74.88,83.88,97.55,44l.32-.57.46.46L401.19,339.52l-.19.34c-13.74,24.17-19.51,84-12.87,133.37,4.24,31.54,12.84,52.71,22.44,55.26,3.71,1,7.39-.89,11-5.56l.79.61h0L190,831.8C176.8,849.08,163.1,857.78,149.16,857.78ZM98.1,45C75.64,84.86,57.5,147.69,45.63,226.82,27.44,348.09,26.48,494.08,43.05,617.34c9.19,68.34,23.27,126.53,40.72,168.29,16.89,40.43,36.5,64.63,56.69,70,16.59,4.41,33-3.81,48.74-24.42L417.64,528.11a8.87,8.87,0,0,1-7.33,1.35c-10.15-2.7-18.81-23.66-23.17-56.09-6.64-49.33-.89-109.12,12.8-133.67Z" transform="translate(0.12 0.11)"/></g></g><g class="cls-5"><g id="Path_583" data-name="Path 583"><path class="cls-4" d="M149.16,857.78a35,35,0,0,1-8.95-1.19C119.7,851.15,99.87,826.74,82.85,786,65.37,744.18,51.26,685.9,42.06,617.47,25.47,494.12,26.44,348,44.64,226.67,56.59,147.05,74.88,83.88,97.55,44l.32-.57.46.46L401.19,339.52l-.19.34c-13.74,24.17-19.51,84-12.87,133.37,4.24,31.54,12.84,52.71,22.44,55.26,3.71,1,7.39-.89,11-5.56l.79.61h0L190,831.8C176.8,849.08,163.1,857.78,149.16,857.78ZM98.1,45C75.64,84.86,57.5,147.69,45.63,226.82,27.44,348.09,26.48,494.08,43.05,617.34c9.19,68.34,23.27,126.53,40.72,168.29,16.89,40.43,36.5,64.63,56.69,70,16.59,4.41,33-3.81,48.74-24.42L417.64,528.11a8.87,8.87,0,0,1-7.33,1.35c-10.15-2.7-18.81-23.66-23.17-56.09-6.64-49.33-.89-109.12,12.8-133.67Z" transform="translate(0.12 0.11)"/></g></g><g class="cls-13"><g id="Path_584" data-name="Path 584"><path class="cls-4" d="M438.28,386.5l-181.91-146,0-.2q-3.37-25.17-7.59-48.2L97.35,44.32l.19-.33C116,11.6,136.44-3.43,156.82.52c38,7.37,72.35,79.17,92.85,191.09L400.44,338.8c4.3-7.32,9.09-10.69,13.91-9.76,10.26,2,19.36,23.53,23.76,56.22ZM257.31,240,437,384.15c-4.4-31.55-13.09-52.25-22.79-54.13-4.46-.86-9,2.54-13.17,9.84l-.32.56L250,193.31Q254,215.63,257.31,240ZM98.6,44.15,248.43,190.41C228,79.7,194.08,8.76,156.63,1.5,136.79-2.35,116.73,12.4,98.6,44.15Z" transform="translate(0.12 0.11)"/></g><g id="Line_28" data-name="Line 28"><rect class="cls-4" x="286.47" y="-42.37" width="1" height="415.97" transform="translate(-41.06 211.5) rotate(-37.93)"/></g><path class="cls-4" d="M400.67,340.42l-.46-.45L97.35,44.32l.19-.33C113.62,15.69,130.8.87,148.6-.06c15.55-.8,30.75,9,45.2,29.23L422.42,334.81c.27.34.54.69.8,1.07l-.8.59-.79-1.06c-3-3.82-6.13-5.69-9.23-5.51-3.93.2-7.77,3.55-11.41,10ZM98.6,44.15,400.45,338.8c3.73-6.35,7.73-9.69,11.9-9.9a9.25,9.25,0,0,1,5.65,1.67L193,29.76C178.75,9.84,163.83.14,148.66.94,131.29,1.84,114.45,16.38,98.6,44.15Z" transform="translate(0.12 0.11)"/></g><g class="cls-5"><path class="cls-4" d="M400.67,340.42l-.46-.45L97.35,44.32l.19-.33C113.62,15.69,130.8.86,148.6-.06c15.55-.8,30.75,9,45.2,29.23L422.42,334.81c.27.34.54.69.8,1.06l-.8.59-.79-1c-3-3.83-6.13-5.69-9.23-5.52-3.93.21-7.77,3.56-11.41,10ZM98.6,44.15,400.45,338.8c3.73-6.35,7.73-9.69,11.9-9.9a9.25,9.25,0,0,1,5.65,1.67L193,29.76C178.75,9.84,163.83.14,148.66.94,131.29,1.84,114.45,16.38,98.6,44.15Z" transform="translate(0.12 0.11)"/></g></g></svg>